HIERARCHY
ROOT Hips
{
    OFFSET 0.000000 0.000000 0.000000
    CHANNELS 6 Xposition Yposition Zposition Zrotation Xrotation Yrotation
        JOINT Chest
        {
            OFFSET -0.000000 31.571314 -0.000000
            CHANNELS 3 Zrotation Xrotation Yrotation
            JOINT Neck
            {
                OFFSET -0.000000 23.394884 0.000000
                CHANNELS 3 Zrotation Xrotation Yrotation
                JOINT Head
                {
                    OFFSET -0.000000 10.877778 0.000000
                    CHANNELS 3 Zrotation Xrotation Yrotation
                    End Site
                    {
                        OFFSET -0.000000 16.811111 0.000000
                    }
                }
            }
            JOINT LeftCollar
            {
                OFFSET -0.000000 23.394884 0.000000
                CHANNELS 3 Zrotation Xrotation Yrotation
                JOINT LeftShoulder
                {
                    OFFSET 21.500002 -0.000000 0.000000
                    CHANNELS 3 Zrotation Xrotation Yrotation
                    JOINT LeftElbow
                    {
                        OFFSET 24.792776 0.000000 0.000000
                        CHANNELS 3 Zrotation Xrotation Yrotation
                        JOINT LeftWrist
                        {
                            OFFSET 26.439411 0.000000 0.000000
                            CHANNELS 3 Zrotation Xrotation Yrotation
                            End Site
                            {
                                OFFSET 0.000000 -14.833334 0.000000
                            }
                        }
                    }
                }
            }
            JOINT RightCollar
            {
                OFFSET -0.000000 23.394884 0.000000
                CHANNELS 3 Zrotation Xrotation Yrotation
                JOINT RightShoulder
                {
                    OFFSET -21.500002 0.000000 0.000000
                    CHANNELS 3 Zrotation Xrotation Yrotation
                    JOINT RightElbow
                    {
                        OFFSET -24.792776 0.000000 0.000000
                        CHANNELS 3 Zrotation Xrotation Yrotation
                        JOINT RightWrist
                        {
                            OFFSET -26.439411 0.000000 0.000000
                            CHANNELS 3 Zrotation Xrotation Yrotation
                            End Site
                            {
                                OFFSET -0.000000 -14.833334 0.000000
                            }
                        }
                    }
                }
            }
        }
    JOINT LeftHip
    {
        OFFSET 11.866667 0.000000 0.000000
        CHANNELS 3 Zrotation Xrotation Yrotation
        JOINT LeftKnee
        {
            OFFSET -0.000000 -38.580112 0.000000
            CHANNELS 3 Zrotation Xrotation Yrotation
            JOINT LeftAnkle
            {
                OFFSET -0.000000 -41.767254 0.000000
                CHANNELS 3 Zrotation Xrotation Yrotation
                End Site
                {
                    OFFSET -0.000000 -4.944444 16.811111
                }
            }
        }
    }
    JOINT RightHip
    {
        OFFSET -11.866667 0.000000 0.000000
        CHANNELS 3 Zrotation Xrotation Yrotation
        JOINT RightKnee
        {
            OFFSET -0.000000 -38.580112 0.000000
            CHANNELS 3 Zrotation Xrotation Yrotation
            JOINT RightAnkle
            {
                OFFSET -0.000000 -41.767254 0.000000
                CHANNELS 3 Zrotation Xrotation Yrotation
                End Site
                {
                    OFFSET -0.000000 -4.944444 16.811111
                }
            }
        }
    }
}
MOTION
Frames:    5
Frame Time:    0.010000
51.445229    90.354408    25.573364    -0.968475    5.733672    -45.044220    10.329143    9.804909    28.272678    -5.318492    0.228945    -19.505201    13.351238    -17.998817    -17.387409    -13.917390    -0.440683    3.518469    -38.667908    38.245674    -35.186543    24.718035    -12.237851    -49.378998    144.696518    3.387984    6.711779    19.489672    2.570098    14.425208    -38.507504    47.307972    113.528107    -29.994156    -4.546000    17.459766    -95.399323    29.506405    -56.349205    12.741606    -23.639090    2.635123    -5.375385    21.480642    -12.040635    -11.114844    1.072419    9.231103    -4.610229    4.131836    -0.628797    0.616811    32.966194    11.744131    -2.048015    -8.102122    -21.547777    
51.397114    90.208527    25.112640    -1.256146    5.542837    -44.711956    10.653755    9.970482    27.715063    -5.055252    0.299588    -19.187109    12.816537    -18.131847    -17.142248    -13.912562    -0.420563    3.583832    -38.762947    39.313900    -35.803604    26.410339    -12.940578    -48.871010    144.306732    4.888412    8.049398    19.306946    2.430730    13.798356    -38.415882    48.307400    113.333435    -30.461226    -4.912871    18.634041    -97.874870    29.358887    -54.404736    13.085310    -23.912973    2.613078    -5.544743    22.012190    -12.027822    -11.248673    1.143142    9.061578    -4.599632    4.139643    -0.652471    0.518531    33.301144    11.175613    -1.820904    -7.937508    -21.678095    
51.348831    90.045471    24.640364    -1.538147    5.329663    -44.440617    10.934566    10.184389    27.145891    -4.760130    0.356745    -18.853102    12.255410    -18.299086    -16.882147    -13.932293    -0.421808    3.632674    -38.869095    40.327946    -36.414349    28.205149    -13.667076    -48.318142    143.606262    6.195852    9.522787    19.089159    2.299726    13.187956    -38.397697    49.251488    113.173096    -30.877375    -5.287448    19.728218    -100.332909    29.171730    -52.643776    13.448906    -24.189045    2.652916    -5.724051    22.588886    -12.036125    -11.390421    1.192917    8.904007    -4.584442    4.159337    -0.574070    0.429309    33.523468    10.528175    -1.444388    -7.642053    -21.786280    
51.302643    89.865303    24.156012    -1.806586    5.095577    -44.233627    11.157962    10.447923    26.560598    -4.441192    0.406237    -18.501366    11.683961    -18.505234    -16.602873    -13.972649    -0.452411    3.657087    -39.016525    41.235924    -36.950409    29.958704    -14.325506    -47.801064    142.752167    7.303981    11.095506    18.848867    2.168837    12.595989    -38.739548    50.035767    113.291374    -31.334393    -5.653362    20.609423    -102.634758    28.996672    -51.287598    13.825829    -24.469337    2.756744    -5.908329    23.204813    -12.065766    -11.539912    1.222420    8.762726    -4.575317    4.189913    -0.386136    0.362271    33.628712    9.845794    -0.880997    -7.278927    -21.866468    
51.261158    89.667946    23.659681    -2.054429    4.841015    -44.091202    11.310551    10.760550    25.951433    -4.111288    0.456292    -18.127989    11.123952    -18.753815    -16.297682    -14.032853    -0.428222    3.649945    -39.194649    41.918255    -37.405369    31.462442    -14.822643    -47.431335    141.932419    8.211065    12.669847    18.597786    2.038325    12.023496    -39.626163    50.588848    113.854523    -31.866734    -5.997748    21.208605    -104.717537    28.922821    -50.458427    14.208365    -24.756510    2.917325    -6.096932    23.854565    -12.107927    -11.696722    1.234048    8.641759    -4.584994    4.231874    -0.085021    0.334183    33.632633    9.181097    -0.117521    -6.931287    -21.928532    
